<svg id="Capa_1" enable-background="new 0 0 512 512" height="512" viewBox="0 0 512 512" width="512" xmlns="http://www.w3.org/2000/svg"><g><g><path d="m452 176h-392c-11.05 0-20 8.95-20 20v200h156v20h120v-20h156v-200c0-11.05-8.95-20-20-20z" fill="#b3f1ff"/><path d="m96 116h320v200h-320z" fill="#ff7b79"/><g fill="#eefaff"><path d="m502 396c0 33.14-26.86 60-60 60h-372c-33.14 0-60-26.86-60-60h186v20h120v-20z"/><path d="m256 116-120-60v200l120 60 120-60c0-14.842 0-192.363 0-200z"/></g></g><g><path d="m316 346h-120c-5.523 0-10 4.478-10 10s4.477 10 10 10h120c5.522 0 10-4.478 10-10s-4.478-10-10-10z"/><circle cx="256" cy="456" r="10"/><path d="m502 386h-20v-190c0-16.542-13.458-30-30-30h-26v-50c0-5.522-4.478-10-10-10h-30v-50c0-3.466-1.795-6.685-4.742-8.507-2.947-1.82-6.628-1.988-9.729-.438l-115.529 57.765-115.528-57.764c-3.101-1.551-6.781-1.384-9.729.438-2.949 1.822-4.743 5.04-4.743 8.506v50h-30c-5.523 0-10 4.478-10 10v50h-26c-16.542 0-30 13.458-30 30v190h-20c-5.523 0-10 4.478-10 10 0 38.598 31.402 70 70 70h141c5.523 0 10-4.478 10-10s-4.477-10-10-10h-141c-24.146 0-44.349-17.206-48.996-40h164.996v10c0 5.522 4.477 10 10 10h120c5.522 0 10-4.478 10-10v-10.01h164.995c-4.645 22.804-24.849 40.01-48.995 40.01h-141c-5.522 0-10 4.478-10 10s4.478 10 10 10h141c38.598 0 70-31.402 70-70 0-5.522-4.478-10-10-10zm-96-260v180h-107.64l82.111-41.056c3.389-1.694 5.529-5.156 5.529-8.944v-130zm-40 123.819-100 50v-177.639l100-50zm-220-177.638 100 50v177.639l-100-50zm-40 53.819h20v130c0 3.788 2.14 7.25 5.528 8.944l82.111 41.056h-107.639zm210 260c-5.522 0-10 4.478-10 10v10h-100v-10c0-5.522-4.477-10-10-10h-146v-190c0-5.514 4.486-10 10-10h26v130c0 5.522 4.477 10 10 10h320c5.522 0 10-4.478 10-10v-130h26c5.514 0 10 4.486 10 10v190z"/></g></g></svg>