<?xml version="1.0"?>
<svg xmlns="http://www.w3.org/2000/svg" width="512" height="512" viewBox="0 0 512 512"><g><path d="M160,456H104a8,8,0,0,0,0,16h56a8,8,0,0,0,0-16Z"/><path d="M192,456h-8a8,8,0,0,0,0,16h8a8,8,0,0,0,0-16Z"/><path d="M320,264H112a16.019,16.019,0,0,0-16,16v32a16.019,16.019,0,0,0,16,16H320a16.019,16.019,0,0,0,16-16V280A16.019,16.019,0,0,0,320,264Zm0,48H112V280H320l.01,32Z"/><path d="M320,336H112a16.019,16.019,0,0,0-16,16v32a16.019,16.019,0,0,0,16,16H320a16.019,16.019,0,0,0,16-16V352A16.019,16.019,0,0,0,320,336Zm0,48H112V352H320l.01,32Z"/><path d="M368,56.37V40A32.036,32.036,0,0,0,336,8H96A32.036,32.036,0,0,0,64,40V472a32.036,32.036,0,0,0,32,32H336a32.036,32.036,0,0,0,32-32V231.63a87.994,87.994,0,0,0,0-175.26ZM269.75,24l-4,16H166.06l-4.5-16ZM352,472a16.021,16.021,0,0,1-16,16H96a16.021,16.021,0,0,1-16-16V40A16.021,16.021,0,0,1,96,24h48.94l7.36,26.17A8,8,0,0,0,160,56H272a8,8,0,0,0,7.76-6.06L286.25,24H336a16.021,16.021,0,0,1,16,16V56.37A88.207,88.207,0,0,0,275.33,120H112a16.021,16.021,0,0,0-16,16v32a16.021,16.021,0,0,0,16,16H281.63a89.568,89.568,0,0,0,4.65,8H112a16.021,16.021,0,0,0-16,16v32a16.021,16.021,0,0,0,16,16H320a16.021,16.021,0,0,0,16-16V228.67a86.4,86.4,0,0,0,16,2.96ZM275.33,168H112V136H272.37c-.24,2.64-.37,5.3-.37,8A87.608,87.608,0,0,0,275.33,168Zm24.34,40A88.391,88.391,0,0,0,320,222.37V240H112V208ZM360,216a72.038,72.038,0,0,1-70.56-86.37.127.127,0,0,0,.01-.06A72,72,0,1,1,360,216Z"/><path d="M376,112v64a8,8,0,0,1-16,0V124.94l-4.42,2.22a8.005,8.005,0,0,1-7.16-14.32l16-8A8,8,0,0,1,376,112Z"/></g></svg>
