<?xml version="1.0" encoding="iso-8859-1"?>
<!-- Generator: Adobe Illustrator 19.0.0, SVG Export Plug-In . SVG Version: 6.00 Build 0)  -->
<svg version="1.1" id="Capa_1" xmlns="http://www.w3.org/2000/svg" xmlns:xlink="http://www.w3.org/1999/xlink" x="0px" y="0px"
	 viewBox="0 0 512 512" style="enable-background:new 0 0 512 512;" xml:space="preserve">
<g>
	<g>
		<path d="M497,226h-46c-8.291,0-15,6.709-15,15s6.709,15,15,15h46c8.291,0,15-6.709,15-15S505.291,226,497,226z"/>
	</g>
</g>
<g>
	<g>
		<path d="M476.606,320.394l-30-30c-5.859-5.859-15.352-5.859-21.211,0s-5.86,15.352,0,21.211l30,30
			c5.859,5.859,15.352,5.859,21.211,0S482.465,326.253,476.606,320.394z"/>
	</g>
</g>
<g>
	<g>
		<path d="M476.605,140.394c-5.859-5.859-15.352-5.859-21.211,0l-30,30c-5.859,5.859-5.859,15.352,0,21.211s15.352,5.86,21.211,0
			l30-30C482.464,155.746,482.464,146.253,476.605,140.394z"/>
	</g>
</g>
<g>
	<g>
		<path d="M106,136c-19.53,0-36.024,12.578-42.237,30H61c-33.091,0-61,26.909-61,60s27.909,60,61,60h2.763
			c6.213,17.422,22.707,30,42.237,30h75V136H106z"/>
	</g>
</g>
<g>
	<g>
		<path d="M361,46c-16.569,0-30,13.431-30,30v300c0,16.567,13.431,30,30,30c16.569,0,30-13.433,30-30V76
			C391,59.431,377.569,46,361,46z"/>
	</g>
</g>
<g>
	<g>
		<path d="M106,346c-5.136,0-10.151-0.529-15-1.518V421c0,24.814,20.186,45,45,45c24.814,0,45-20.186,45-45v-75H106z"/>
	</g>
</g>
<g>
	<g>
		<path d="M287.816,97.973c-20.92,20.92-47.855,33.224-76.816,36.563v182.929c28.962,3.338,55.897,15.643,76.816,36.563L301,367.211
			V84.789L287.816,97.973z"/>
	</g>
</g>
<g>
</g>
<g>
</g>
<g>
</g>
<g>
</g>
<g>
</g>
<g>
</g>
<g>
</g>
<g>
</g>
<g>
</g>
<g>
</g>
<g>
</g>
<g>
</g>
<g>
</g>
<g>
</g>
<g>
</g>
</svg>
